<?xml version="1.0" encoding="UTF-8"?>
<svg width="655px" height="496px" viewBox="0 0 655 496" version="1.1" xmlns="http://www.w3.org/2000/svg"
>
    <title>Live/BACKEND Logo</title>
    <g id="Page-1" stroke="none" stroke-width="1" fill="none" fill-rule="evenodd">
        <g id="Live/BACKEND-Logo" fill="#FFFFFF" fill-rule="nonzero">
            <path d="M332.393257,174.811948 C361.183224,195.750106 387.355921,215.379629 413.528618,233.700517 C416.800206,235.663469 423.997697,235.009152 427.923602,232.391882 C454.750617,214.070994 482.231949,196.404423 507.750329,176.7749 C529.997122,159.762647 529.342804,138.170172 507.750329,119.194966 C484.849219,99.5654429 452.787664,98.2568081 418.763158,117.886331 C390.627508,134.898584 363.146176,153.87379 332.393257,174.811948 Z"
                  id="Shape"></path>
            <path d="M179.937294,61.6150317 C205.455674,80.5902373 229.011102,98.2568081 253.220847,114.614744 C257.146752,117.232014 265.652878,116.577696 269.578783,113.960426 C292.479893,98.9111255 316.035321,83.8618245 337.627796,66.8495712 C356.603002,51.8002702 356.603002,32.8250646 338.936431,15.8128114 C318.65259,-3.16239424 286.591036,-5.77966397 256.492434,11.8869067 C230.319737,26.2818903 206.764309,43.948461 179.937294,61.6150317 Z"
                  id="Shape"></path>
            <polygon id="Shape"
                     points="0 70.1211584 397.825 359.329464 654.317434 186.589662 654.317434 323.342005 399.133635 495.427491 0 202.947598"></polygon>
        </g>
    </g>
</svg>
